<?xml version="1.0" encoding="UTF-8"?>
<svg id="uuid-a6edd8ea-575f-4290-905a-0c839c04229d" data-name="Layer 1" xmlns="http://www.w3.org/2000/svg" viewBox="0 0 681 345.83">
  <g>
    <path d="M94.4,111.3c0,3.61-.46,6.86-1.38,9.75-.92,2.89-2.13,5.42-3.64,7.6-1.51,2.18-3.26,4.04-5.26,5.58-2,1.54-4.08,2.79-6.27,3.76s-4.4,1.69-6.63,2.14c-2.24.46-4.35.69-6.35.69H7.93v-21.03h56.78c2.86,0,5.02-.73,6.47-2.18,1.46-1.46,2.18-3.56,2.18-6.31-.27-5.61-3.1-8.41-8.49-8.41h-32.6c-4.64,0-8.57-.81-11.81-2.43-3.24-1.62-5.86-3.64-7.89-6.07-2.02-2.43-3.48-5.04-4.37-7.85-.89-2.8-1.33-5.42-1.33-7.85,0-4.69.84-8.64,2.51-11.85,1.67-3.21,3.77-5.81,6.31-7.81,2.53-1.99,5.28-3.44,8.25-4.33,2.96-.89,5.74-1.33,8.33-1.33h51.69v21.03h-51.53c-1.08,0-1.93.12-2.55.36-.62.24-1.08.57-1.38.97-.3.4-.47.84-.53,1.29-.05.46-.08.9-.08,1.33.05.86.21,1.54.49,2.02.27.49.61.84,1.01,1.05.4.22.86.34,1.38.36.51.03,1.01.04,1.5.04h32.6c5.39,0,9.98.97,13.75,2.91,3.77,1.94,6.82,4.38,9.14,7.32,2.32,2.94,4,6.13,5.06,9.58,1.05,3.45,1.58,6.66,1.58,9.63Z"/>
    <path d="M205.54,111.3c0,3.61-.46,6.86-1.38,9.75-.92,2.89-2.13,5.42-3.64,7.6-1.51,2.18-3.26,4.04-5.26,5.58-2,1.54-4.08,2.79-6.27,3.76s-4.38,1.69-6.59,2.14c-2.21.46-4.31.69-6.31.69h-37.94v-21.03h37.94c2.8,0,4.91-.73,6.31-2.18,1.4-1.46,2.1-3.56,2.1-6.31v-28.31c0-2.91-.72-5.07-2.14-6.47-1.43-1.4-3.52-2.1-6.27-2.1h-37.77c-2.86,0-5.02.72-6.47,2.14-1.46,1.43-2.18,3.52-2.18,6.27v85.34h-21.03v-85.34c0-3.61.46-6.85,1.38-9.71.92-2.86,2.14-5.38,3.68-7.56,1.54-2.18,3.3-4.04,5.3-5.58,1.99-1.54,4.08-2.79,6.27-3.76s4.39-1.68,6.63-2.14c2.24-.46,4.33-.69,6.27-.69h37.94c3.61,0,6.85.46,9.71,1.38,2.86.92,5.38,2.13,7.56,3.64,2.18,1.51,4.04,3.26,5.58,5.26,1.54,2,2.79,4.08,3.76,6.27.97,2.18,1.68,4.38,2.14,6.59.46,2.21.69,4.31.69,6.31v28.47Z"/>
    <path d="M313.76,111.87c0,2.91-.51,6.05-1.54,9.42-1.03,3.37-2.68,6.5-4.97,9.38-2.29,2.89-5.29,5.3-8.98,7.24-3.69,1.94-8.18,2.91-13.47,2.91h-37.94c-2.91,0-6.05-.51-9.42-1.54-3.37-1.02-6.5-2.68-9.38-4.97-2.89-2.29-5.3-5.28-7.24-8.98-1.94-3.69-2.91-8.18-2.91-13.47,0-2.91.51-6.07,1.54-9.46,1.02-3.4,2.68-6.54,4.97-9.42,2.29-2.88,5.28-5.3,8.98-7.24,3.69-1.94,8.18-2.91,13.47-2.91h37.94v20.06h-37.94c-2.86,0-5.07.88-6.63,2.63-1.56,1.75-2.35,3.92-2.35,6.51,0,2.75.9,4.89,2.71,6.43,1.81,1.54,3.95,2.31,6.43,2.31h37.77c2.86,0,5.07-.86,6.63-2.59,1.56-1.73,2.35-3.88,2.35-6.47v-29.36c0-2.75-.85-4.93-2.55-6.55s-3.84-2.43-6.43-2.43h-46.19v-19.98h46.19c2.91,0,6.05.51,9.42,1.54,3.37,1.02,6.5,2.68,9.38,4.97,2.88,2.29,5.3,5.29,7.24,8.98,1.94,3.69,2.91,8.18,2.91,13.47v29.52Z"/>
    <path d="M416.41,140.83h-57.03c-2.91,0-6.09-.51-9.54-1.54-3.45-1.02-6.65-2.71-9.58-5.06-2.94-2.35-5.39-5.39-7.36-9.14-1.97-3.75-2.95-8.34-2.95-13.79v-28.47c0-1.99.23-4.1.69-6.31.46-2.21,1.17-4.41,2.14-6.59.97-2.18,2.22-4.27,3.76-6.27,1.54-1.99,3.4-3.75,5.58-5.26,2.18-1.51,4.71-2.72,7.56-3.64,2.86-.92,6.09-1.38,9.71-1.38h57.03v21.03h-57.03c-2.75,0-4.84.7-6.27,2.1-1.43,1.4-2.14,3.56-2.14,6.47v28.31c0,2.75.73,4.85,2.18,6.31,1.46,1.46,3.59,2.18,6.39,2.18h56.86v21.03Z"/>
    <path d="M527.23,82.34c0,2.91-.51,6.05-1.54,9.42-1.03,3.37-2.68,6.5-4.97,9.38-2.29,2.89-5.29,5.3-8.98,7.24-3.69,1.94-8.18,2.91-13.47,2.91h-37.94v-19.98h37.94c2.86,0,5.07-.88,6.63-2.63,1.56-1.75,2.35-3.92,2.35-6.51,0-2.75-.88-4.91-2.63-6.47-1.75-1.56-3.87-2.35-6.35-2.35h-37.94c-2.86,0-5.07.88-6.63,2.63-1.56,1.75-2.35,3.92-2.35,6.51v29.36c0,2.8.88,4.99,2.63,6.55,1.75,1.56,3.92,2.35,6.51,2.35h37.78v20.06h-37.94c-2.91,0-6.05-.51-9.42-1.54-3.37-1.02-6.5-2.68-9.38-4.97-2.89-2.29-5.3-5.28-7.24-8.98-1.94-3.69-2.91-8.18-2.91-13.47v-29.52c0-2.91.51-6.05,1.54-9.42,1.02-3.37,2.68-6.5,4.97-9.38,2.29-2.88,5.28-5.3,8.98-7.24,3.69-1.94,8.18-2.91,13.47-2.91h37.94c2.91,0,6.05.51,9.42,1.54,3.37,1.02,6.5,2.68,9.38,4.97,2.88,2.29,5.3,5.29,7.24,8.98,1.94,3.69,2.91,8.18,2.91,13.47Z"/>
    <path d="M94.4,269.07c0,3.61-.46,6.86-1.38,9.75-.92,2.89-2.13,5.42-3.64,7.6-1.51,2.18-3.26,4.04-5.26,5.58-2,1.54-4.08,2.79-6.27,3.76s-4.4,1.69-6.63,2.14c-2.24.46-4.35.69-6.35.69H7.93v-21.03h56.78c2.86,0,5.02-.73,6.47-2.18,1.46-1.46,2.18-3.56,2.18-6.31-.27-5.61-3.1-8.41-8.49-8.41h-32.6c-4.64,0-8.57-.81-11.81-2.43-3.24-1.62-5.86-3.64-7.89-6.07-2.02-2.43-3.48-5.04-4.37-7.85-.89-2.8-1.33-5.42-1.33-7.85,0-4.69.84-8.64,2.51-11.85,1.67-3.21,3.77-5.81,6.31-7.81,2.53-2,5.28-3.44,8.25-4.33,2.96-.89,5.74-1.33,8.33-1.33h51.69v21.03h-51.53c-1.08,0-1.93.12-2.55.36-.62.24-1.08.57-1.38.97-.3.4-.47.84-.53,1.29-.05.46-.08.9-.08,1.33.05.86.21,1.54.49,2.02.27.49.61.84,1.01,1.05.4.22.86.34,1.38.36.51.03,1.01.04,1.5.04h32.6c5.39,0,9.98.97,13.75,2.91,3.77,1.94,6.82,4.38,9.14,7.32,2.32,2.94,4,6.13,5.06,9.59s1.58,6.66,1.58,9.62Z" style="fill: #0788d8;"/>
    <path d="M204.24,269.07c0,3.61-.46,6.86-1.38,9.75-.92,2.89-2.13,5.42-3.64,7.6-1.51,2.18-3.26,4.04-5.26,5.58-2,1.54-4.08,2.79-6.27,3.76-2.18.97-4.4,1.69-6.63,2.14-2.24.46-4.35.69-6.35.69h-37.94c-2.91,0-6.09-.51-9.54-1.54-3.45-1.02-6.65-2.71-9.59-5.06-2.94-2.35-5.39-5.39-7.36-9.14-1.97-3.75-2.95-8.34-2.95-13.79v-28.47c0-5.39.98-9.96,2.95-13.71,1.97-3.75,4.42-6.79,7.36-9.14,2.94-2.35,6.13-4.03,9.59-5.06,3.45-1.02,6.63-1.54,9.54-1.54h37.94c5.39,0,9.98.97,13.75,2.91,3.77,1.94,6.82,4.38,9.14,7.32,2.32,2.94,4,6.13,5.06,9.58,1.05,3.45,1.58,6.66,1.58,9.62v28.47ZM183.21,240.76c0-2.91-.73-5.07-2.18-6.47-1.46-1.4-3.56-2.1-6.31-2.1h-37.77c-2.8,0-4.93.72-6.39,2.14-1.46,1.43-2.18,3.52-2.18,6.27v28.47c0,2.75.73,4.85,2.18,6.31s3.59,2.18,6.39,2.18h37.77c2.86,0,4.99-.73,6.39-2.18,1.4-1.46,2.1-3.56,2.1-6.31v-28.31Z" style="fill: #0788d8;"/>
    <path d="M317.73,288c0,1.51-.27,2.91-.81,4.21-.54,1.29-1.28,2.41-2.22,3.36-.94.94-2.05,1.69-3.32,2.22-1.27.54-2.63.81-4.08.81h-47.56c-2.59,0-5.35-.3-8.29-.89-2.94-.59-5.84-1.55-8.7-2.87-2.86-1.32-5.62-2.99-8.29-5.01s-5-4.48-7-7.36c-2-2.88-3.6-6.21-4.81-9.99-1.21-3.77-1.82-8.03-1.82-12.78v-48.53h21.03v48.53c0,2.75.47,5.22,1.42,7.4.94,2.18,2.22,4.06,3.84,5.62,1.62,1.56,3.52,2.76,5.7,3.6,2.18.84,4.54,1.25,7.08,1.25h36.8v-66.41h21.03v76.84Z" style="fill: #0788d8;"/>
    <path d="M434.37,298.6h-21.03v-48.53c0-2.75-.47-5.22-1.42-7.4-.94-2.18-2.22-4.06-3.84-5.62-1.62-1.56-3.52-2.76-5.7-3.6-2.18-.83-4.54-1.25-7.08-1.25h-36.8v66.41h-21.03v-77c0-1.46.27-2.82.81-4.08.54-1.27,1.29-2.37,2.26-3.32.97-.94,2.1-1.68,3.4-2.22,1.29-.54,2.67-.81,4.13-.81h47.4c2.64,0,5.43.3,8.37.89,2.94.59,5.85,1.55,8.74,2.87,2.88,1.32,5.63,2.99,8.25,5.02,2.61,2.02,4.93,4.48,6.96,7.36,2.02,2.89,3.63,6.22,4.81,9.99,1.19,3.78,1.78,8.04,1.78,12.78v48.53Z" style="fill: #0788d8;"/>
    <path d="M548.74,269.07c0,3.61-.46,6.86-1.38,9.75-.92,2.89-2.13,5.42-3.64,7.6-1.51,2.18-3.26,4.04-5.26,5.58-2,1.54-4.08,2.79-6.27,3.76s-4.4,1.69-6.63,2.14c-2.24.46-4.36.69-6.35.69h-37.94c-3.61,0-6.85-.46-9.71-1.38-2.86-.92-5.38-2.14-7.56-3.68s-4.04-3.3-5.58-5.3c-1.54-1.99-2.79-4.08-3.76-6.27-.97-2.18-1.69-4.39-2.14-6.63-.46-2.24-.69-4.33-.69-6.27v-28.47c0-5.39.98-9.96,2.95-13.71,1.97-3.75,4.42-6.79,7.36-9.14,2.94-2.35,6.13-4.03,9.58-5.06,3.45-1.02,6.63-1.54,9.54-1.54h37.94v21.03h-37.77c-2.8,0-4.93.72-6.39,2.14-1.46,1.43-2.18,3.52-2.18,6.27v28.31c0,2.86.71,5.01,2.14,6.47,1.43,1.46,3.52,2.18,6.27,2.18h37.94c2.86,0,4.99-.73,6.39-2.18s2.1-3.56,2.1-6.31v-94.88h21.03v94.88Z" style="fill: #0788d8;"/>
  </g>
  <ellipse cx="578.25" cy="151.8" rx="8.35" ry="130.86" style="fill: #0788d8;"/>
  <ellipse cx="608.65" cy="179.14" rx="8.35" ry="130.86" style="fill: #fff;"/>
  <ellipse cx="632.82" cy="180.34" rx="4.79" ry="75" style="fill: #0788d8;"/>
  <ellipse cx="655.9" cy="159.38" rx="6.88" ry="108.83" style="fill: #fff;"/>
  <ellipse cx="677.56" cy="200.92" rx="3.44" ry="108.83" style="fill: #0788d8;"/>
</svg>